#!OML:ASF E:\emotionWalksFemale\Project 1\Capture day 1\Session 1\Female1.ASF
:FULLY-SPECIFIED
:DEGREES
242
root 8.60059 11.948 10.1983 194.58 -5.92935 -180.922
lowerback 34.4998 0.0812995 4.68013
upperback -1.98854 1.86484 0.549516
thorax -20.2783 0.16335 -2.77504
lowerneck -10.3619 -1.84613 -6.97389
upperneck -22.8142 -4.5647 5.34952
head -4.99753 -3.35413 3.04269
rclavicle -3.06128e-014 -3.18055e-014
rhumerus -24.8818 -7.79536 -72.4914
rradius 54.3637
rwrist 21.4981
rhand -29.8193 -57.6179
rfingers 7.12502
rthumb -3.14292 272.426
lclavicle -3.06128e-014 -3.18055e-014
lhumerus -29.933 -0.44938 74.673
lradius 58.0163
lwrist 4.87482
lhand -30.5539 -74.8756
lfingers 7.12502
lthumb -3.85237 -44.9306
rfemur -68.4555 9.88233 20.2302
rtibia 95.0137
rfoot -44.4085 -26.7409
rtoes 30.1728
lfemur -70.7468 -3.32747 -23.6853
ltibia 91.7579
lfoot -37.5213 4.5942
ltoes -32.9501
243
root 8.62014 11.8663 10.2552 195.611 -6.58611 -180.979
lowerback 34.9035 -0.175926 4.88131
upperback -2.0112 1.64903 0.654238
thorax -20.5031 0.0501476 -2.66388
lowerneck -10.5183 -1.62714 -7.02878
upperneck -23.4216 -4.36072 5.5218
head -5.17455 -3.31653 3.12987
rclavicle -2.50469e-014 -1.59028e-015
rhumerus -22.2188 -6.12035 -74.8853
rradius 50.8242
rwrist 23.1033
rhand -30.2808 -55.9161
rfingers 7.12502
rthumb -3.58867 274.134
lclavicle -2.50469e-014 -1.59028e-015
lhumerus -27.9391 -1.3022 76.4193
lradius 56.7671
lwrist 4.349
lhand -31.0371 -75.3371
lfingers 7.12502
lthumb -4.31901 -45.4012
rfemur -70.472 9.0067 20.3008
rtibia 95.8069
rfoot -44.3929 -26.3934
rtoes 30.6988
lfemur -72.8893 -3.61137 -23.6667
ltibia 92.5016
lfoot -37.0948 4.65717
ltoes -34.3788
244
root 8.62901 11.806 10.2882 196.072 -6.81014 -180.83
lowerback 35.6967 -0.292069 5.08108
upperback -1.95051 1.6213 0.767277
thorax -20.778 0.003476 -2.62872
lowerneck -10.7157 -1.49258 -6.84116
upperneck -23.674 -4.27457 5.38253
head -5.2394 -3.31644 3.06168
rclavicle -1.43125e-014 -3.02153e-014
rhumerus -19.7944 -4.48188 -77.1606
rradius 47.2207
rwrist 23.6786
rhand -31.063 -55.9795
rfingers 7.12502
rthumb -4.34398 274.085
lclavicle -1.43125e-014 -3.02153e-014
lhumerus -26.0828 -1.63737 77.9967
lradius 55.5579
lwrist 4.24981
lhand -31.2788 -75.6634
lfingers 7.12502
lthumb -4.55236 -45.7323
rfemur -71.5816 8.64168 20.5403
rtibia 96.393
rfoot -44.2274 -26.2679
rtoes 30.4409
lfemur -74.1233 -3.49178 -23.5775
ltibia 93.1701
lfoot -37.0518 4.5793
ltoes -34.5818
245
root 8.63815 11.7603 10.3114 196.236 -6.79936 -180.588
lowerback 36.7665 -0.278189 5.15014
upperback -1.83545 1.7167 0.916745
thorax -21.0926 0.0142173 -2.53814
lowerneck -10.9828 -1.49019 -6.75539
upperneck -23.8003 -4.33562 5.31448
head -5.24073 -3.37926 3.02673
rclavicle -1.47101e-014 -1.59028e-015
rhumerus -17.4388 -3.29072 -79.137
rradius 44.1944
rwrist 25.1532
rhand -30.3026 -56.0849
rfingers 7.12502
rthumb -3.60966 273.966
lclavicle -1.47101e-014 -1.59028e-015
lhumerus -24.1408 -1.79314 79.529
lradius 54.4425
lwrist 4.68787
lhand -31.205 -75.4517
lfingers 7.12502
lthumb -4.48109 -45.5191
rfemur -72.1933 8.57855 20.8714
rtibia 96.8687
rfoot -44.23 -26.2725
rtoes 29.982
lfemur -74.8732 -3.13845 -23.428
ltibia 93.7739
lfoot -37.2501 4.25408
ltoes -33.7026
246
root 8.64876 11.7199 10.3285 196.472 -6.57299 -180.444
lowerback 37.5273 -0.0969133 4.90583
upperback -1.55435 1.8442 1.04532
thorax -21.0536 0.079058 -2.31278
lowerneck -11.4938 -1.43981 -6.67754
upperneck -24.0242 -4.35253 5.35216
head -5.23636 -3.44743 3.02663
rclavicle 2.22639e-014 -8.74653e-015
rhumerus -14.9444 -2.89662 -80.8093
rradius 42.1393
rwrist 28.4567
rhand -28.4059 -55.5606
rfingers 7.12502
rthumb -1.77798 274.467
lclavicle 2.22639e-014 -8.74653e-015
lhumerus -21.7886 -1.82965 80.9368
lradius 53.2861
lwrist 5.44391
lhand -30.7635 -74.7423
lfingers 7.12502
lthumb -4.0548 -44.8012
rfemur -72.8296 8.70994 21.0362
rtibia 97.2868
rfoot -44.2944 -26.2515
rtoes 29.762
lfemur -75.5736 -2.65979 -23.4172
ltibia 94.3486
lfoot -37.4943 4.04508
ltoes -33.1055
247
root 8.66076 11.6579 10.3598 197.018 -7.07043 -180.545
lowerback 38.0507 -0.254465 4.88
upperback -1.32406 1.62321 1.16337
thorax -20.9891 -0.0122267 -2.04282
lowerneck -12.2617 -1.3454 -6.43587
upperneck -24.0407 -4.3183 5.27801
head -5.13649 -3.49539 2.9497
rclavicle 1.35174e-014 2.06736e-014
rhumerus -12.4216 -2.29252 -82.435
rradius 40.494
rwrist 30.4753
rhand -28.3789 -55.146
rfingers 7.12502
rthumb -1.7519 274.881
lclavicle 1.35174e-014 2.06736e-014
lhumerus -19.0239 -1.70733 82.2421
lradius 51.6045
lwrist 5.73436
lhand -30.3322 -74.1997
lfingers 7.12502
lthumb -3.63826 -44.251
rfemur -73.9956 8.03509 21.0898
rtibia 97.9237
rfoot -44.3789 -25.9211
rtoes 30.1978
lfemur -76.8159 -3.11158 -23.4102
ltibia 94.9309
lfoot -37.4509 4.02534
ltoes -33.0062
248
root 8.67391 11.5954 10.3835 197.405 -7.18463 -180.376
lowerback 38.4445 -0.0962599 5.1364
upperback -1.46112 2.02746 1.3886
thorax -21.3071 0.119391 -2.1288
lowerneck -11.0102 -1.67834 -6.975
upperneck -24.4416 -4.68616 5.40242
head -5.41977 -3.60148 3.12125
rclavicle -1.39149e-014 5.08889e-014
rhumerus -11.2627 -1.67753 -83.2246
rradius 39.1983
rwrist 31.3586
rhand -29.7691 -54.4675
rfingers 7.12502
rthumb -3.09444 275.575
lclavicle -1.39149e-014 5.08889e-014
lhumerus -17.2888 -2.11456 84.1776
lradius 49.9363
lwrist 5.34258
lhand -30.0531 -73.8313
lfingers 7.12502
lthumb -3.36877 -43.8782
rfemur -74.9881 7.87699 21.3473
rtibia 98.4947
rfoot -44.3472 -25.7633
rtoes 30.4219
lfemur -77.9156 -3.0657 -23.2046
ltibia 95.5748
lfoot -37.5656 3.8797
ltoes -32.7434
249
root 8.68683 11.5405 10.3966 197.709 -7.17451 -180.251
lowerback 38.9819 0.0522623 4.96833
upperback -1.2379 2.14056 1.51649
thorax -21.2384 0.173037 -1.9408
lowerneck -11.7504 -1.68823 -6.55365
upperneck -24.2289 -4.78853 5.0948
head -5.25309 -3.69594 2.92788
rclavicle -7.15625e-015 -9.54166e-015
rhumerus -9.09732 -0.608845 -84.4909
rradius 37.5273
rwrist 31.3325
rhand -29.9489 -55.9771
rfingers 7.12502
rthumb -3.26809 274.068
lclavicle -7.15625e-015 -9.54166e-015
lhumerus -14.6946 -1.93537 85.4982
lradius 48.3389
lwrist 4.23219
lhand -29.5187 -73.5081
lfingers 7.12502
lthumb -2.85262 -43.5474
rfemur -75.7801 7.87191 21.563
rtibia 99.0691
rfoot -44.2123 -25.8498
rtoes 30.01
lfemur -78.7582 -2.93405 -23.0675
ltibia 96.1726
lfoot -37.7369 3.7168
ltoes -32.2472
250
root 8.6974 11.4899 10.4043 197.904 -7.26084 -180.271
lowerback 39.4828 0.165757 4.93189
upperback -1.06969 2.26704 1.59794
thorax -21.2162 0.215351 -1.88606
lowerneck -12.1515 -1.84101 -6.33198
upperneck -23.9708 -5.01797 4.8776
head -5.1102 -3.81598 2.80107
rclavicle -2.22639e-014 -1.19271e-014
rhumerus -7.21824 -0.660155 -85.4338
rradius 36.5667
rwrist 33.612
rhand -29.1104 -54.9078
rfingers 7.12502
rthumb -2.45834 275.127
lclavicle -2.22639e-014 -1.19271e-014
lhumerus -12.2292 -2.09926 86.8887
lradius 46.8896
lwrist 2.69019
lhand -28.9213 -73.2446
lfingers 7.12502
lthumb -2.2757 -43.2769
rfemur -76.372 7.82727 21.6562
rtibia 99.6521
rfoot -44.0667 -26.0988
rtoes 29.3036
lfemur -79.3649 -3.0246 -23.0263
ltibia 96.7051
lfoot -37.8652 3.7542
ltoes -31.9783
251
root 8.70661 11.4454 10.4154 197.98 -7.4235 -180.307
lowerback 40.2893 0.237533 5.06052
upperback -1.03269 2.43531 1.64742
thorax -21.3564 0.248817 -1.95502
lowerneck -12.2137 -2.03286 -6.33862
upperneck -23.8852 -5.24584 4.89532
head -5.06073 -3.92138 2.8011
rclavicle -1.98785e-014 -3.49861e-014
rhumerus -5.29383 -0.828793 -86.213
rradius 35.9594
rwrist 35.165
rhand -30.1327 -53.3273
rfingers 7.12502
rthumb -3.44563 276.721
lclavicle -1.98785e-014 -3.49861e-014
lhumerus -9.77827 -2.78115 88.1944
lradius 45.5976
lwrist 1.16081
lhand -28.5795 -73.0973
lfingers 7.12502
lthumb -1.94558 -43.1264
rfemur -76.7918 7.82908 21.6891
rtibia 100.144
rfoot -44.1167 -26.3208
rtoes 29.0182
lfemur -79.8264 -3.19163 -22.9668
ltibia 97.1425
lfoot -37.9151 3.86755
ltoes -32.0543
252
root 8.7312 11.4083 10.4222 198.147 -7.20323 -180.345
lowerback 40.8474 0.617381 4.56276
upperback -0.998464 2.725 1.77826
thorax -21.5529 0.403618 -1.69115
lowerneck -11.8743 -2.09934 -6.53581
upperneck -23.9863 -5.25052 5.1638
head -5.12796 -3.90716 2.93051
rclavicle 0 -2.46493e-014
rhumerus -3.45972 -0.616848 -86.9476
rradius 35.5291
rwrist 36.5277
rhand -30.458 -53.6362
rfingers 7.12502
rthumb -3.75972 276.417
lclavicle 0 -2.46493e-014
lhumerus -7.53609 -3.53281 89.2909
lradius 44.4173
lwrist -0.559991
lhand -28.6243 -72.7371
lfingers 7.12502
lthumb -1.98885 -42.7666
rfemur -77.3162 8.33256 21.6104
rtibia 100.565
rfoot -44.293 -26.5958
rtoes 29.3062
lfemur -80.2807 -2.90415 -22.9807
ltibia 97.5445
lfoot -38.0597 3.95244
ltoes -32.3951
253
root 8.7501 11.379 10.4371 198.242 -7.45133 -180.546
lowerback 41.6961 0.663244 4.20567
upperback -0.846129 2.61741 1.89159
thorax -21.7117 0.378955 -1.30984
lowerneck -12.572 -1.99291 -6.37701
upperneck -23.7588 -5.11328 5.16998
head -4.9618 -3.87242 2.88146
rclavicle 9.54166e-015 2.22639e-014
rhumerus -1.45107 2.05912 -87.8096
rradius 38.945
rwrist 45.5516
rhand -9.96332 -75.6363
rfingers 7.12502
rthumb 16.019 104.994
lclavicle 9.54166e-015 2.22639e-014
lhumerus -4.82007 -4.25021 90.0186
lradius 43.2428
lwrist -1.87409
lhand -28.6728 -72.155
lfingers 7.12502
lthumb -2.03569 -42.185
rfemur -77.7014 8.10747 21.4938
rtibia 100.953
rfoot -44.8182 -26.1962
rtoes 30.8853
lfemur -80.6103 -3.26146 -23.0416
ltibia 97.7927
lfoot -38.0655 4.02056
ltoes -32.2377
254
root 8.76895 11.3547 10.443 198.312 -7.62899 -180.621
lowerback 42.0293 0.776161 4.00307
upperback -0.775542 2.68708 2.06
thorax -21.7643 0.424896 -1.04113
lowerneck -11.9575 -2.01898 -6.4826
upperneck -23.9984 -5.12551 5.20457
head -5.12512 -3.85852 2.93383
rclavicle 2.3059e-014 2.38542e-014
rhumerus 0.697215 0.390337 -88.396
rradius 35.0804
rwrist 38.3112
rhand -26.4205 -55.2155
rfingers 7.12502
rthumb 0.139613 274.805
lclavicle 2.3059e-014 2.38542e-014
lhumerus -2.40066 -4.98731 90.8635
lradius 41.619
lwrist -3.49115
lhand -28.2185 -71.8418
lfingers 7.12502
lthumb -1.59695 -41.868
rfemur -77.9654 7.91709 21.5308
rtibia 101.228
rfoot -45.1982 -25.7382
rtoes 32.3086
lfemur -80.8735 -3.49418 -22.9595
ltibia 98.0419
lfoot -38.1957 3.97086
ltoes -31.772
255
root 8.78946 11.322 10.4423 198.429 -7.72347 -180.64
lowerback 42.0273 0.956777 3.79527
upperback -0.515268 2.78807 2.21295
thorax -21.4327 0.487339 -0.798836
lowerneck -11.8275 -2.09816 -6.80202
upperneck -24.1405 -5.18236 5.41154
head -5.17348 -3.8752 3.06209
rclavicle -1.19271e-014 8.74653e-015
rhumerus 2.79102 0.797552 -88.8292
rradius 34.7281
rwrist 38.5933
rhand -28.6632 -53.9953
rfingers 7.12502
rthumb -2.02641 276.035
lclavicle -1.19271e-014 8.74653e-015
lhumerus 0.543327 -5.32372 91.5085
lradius 39.6802
lwrist -6.20404
lhand -27.8722 -71.7718
lfingers 7.12502
lthumb -1.26247 -41.7958
rfemur -78.3528 7.53276 21.8218
rtibia 101.531
rfoot -45.1671 -25.3963
rtoes 32.9971
lfemur -81.2734 -3.6985 -22.8005
ltibia 98.3244
lfoot -38.2061 4.33336
ltoes -31.8348
256
root 8.80863 11.2937 10.443 198.515 -7.78203 -180.572
lowerback 41.9854 1.08517 3.77017
upperback -0.338847 2.91621 2.30135
thorax -21.1848 0.539946 -0.745075
lowerneck -11.4392 -2.27087 -7.24232
upperneck -24.2721 -5.30801 5.79279
head -5.24217 -3.90889 3.27099
rclavicle 2.38542e-015 5.1684e-014
rhumerus 4.80377 1.85742 -89.0228
rradius 35.1335
rwrist 39.9247
rhand -28.5994 -67.5801
rfingers 7.12502
rthumb -1.96482 97.5508
lclavicle 2.38542e-015 5.1684e-014
lhumerus 3.17631 -5.86327 91.8762
lradius 38.0309
lwrist -8.48716
lhand -28.207 -72.4187
lfingers 7.12502
lthumb -1.58579 -42.4448
rfemur -78.6563 7.5843 22.0245
rtibia 101.776
rfoot -45.0026 -25.5805
rtoes 32.9783
lfemur -81.663 -3.97307 -22.471
ltibia 98.6172
lfoot -38.1829 4.59853
ltoes -31.0368
